<svg id="visual" viewBox="0 0 900 450" width="900" height="450" xmlns="http://www.w3.org/2000/svg" xmlns:xlink="http://www.w3.org/1999/xlink" version="1.1"><rect x="0" y="0" width="900" height="450" fill="#D9C7B8"></rect><path d="M0 275L21.5 287C43 299 86 323 128.8 332.3C171.7 341.7 214.3 336.3 257.2 337.3C300 338.3 343 345.7 385.8 338.3C428.7 331 471.3 309 514.2 307.2C557 305.3 600 323.7 642.8 332.8C685.7 342 728.3 342 771.2 348.5C814 355 857 368 878.5 374.5L900 381L900 0L878.5 0C857 0 814 0 771.2 0C728.3 0 685.7 0 642.8 0C600 0 557 0 514.2 0C471.3 0 428.7 0 385.8 0C343 0 300 0 257.2 0C214.3 0 171.7 0 128.8 0C86 0 43 0 21.5 0L0 0Z" fill="#d9c7b8"></path><path d="M0 259L21.5 256.8C43 254.7 86 250.3 128.8 264.5C171.7 278.7 214.3 311.3 257.2 319.3C300 327.3 343 310.7 385.8 292.8C428.7 275 471.3 256 514.2 260.5C557 265 600 293 642.8 302.2C685.7 311.3 728.3 301.7 771.2 286.8C814 272 857 252 878.5 242L900 232L900 0L878.5 0C857 0 814 0 771.2 0C728.3 0 685.7 0 642.8 0C600 0 557 0 514.2 0C471.3 0 428.7 0 385.8 0C343 0 300 0 257.2 0C214.3 0 171.7 0 128.8 0C86 0 43 0 21.5 0L0 0Z" fill="#d9bba5"></path><path d="M0 250L21.5 259.3C43 268.7 86 287.3 128.8 295.8C171.7 304.3 214.3 302.7 257.2 292C300 281.3 343 261.7 385.8 251.7C428.7 241.7 471.3 241.3 514.2 235.2C557 229 600 217 642.8 223C685.7 229 728.3 253 771.2 258.8C814 264.7 857 252.3 878.5 246.2L900 240L900 0L878.5 0C857 0 814 0 771.2 0C728.3 0 685.7 0 642.8 0C600 0 557 0 514.2 0C471.3 0 428.7 0 385.8 0C343 0 300 0 257.2 0C214.3 0 171.7 0 128.8 0C86 0 43 0 21.5 0L0 0Z" fill="#d9af93"></path><path d="M0 243L21.5 236C43 229 86 215 128.8 218.2C171.7 221.3 214.3 241.7 257.2 254.3C300 267 343 272 385.8 266.7C428.7 261.3 471.3 245.7 514.2 230.8C557 216 600 202 642.8 206.5C685.7 211 728.3 234 771.2 233.7C814 233.3 857 209.7 878.5 197.8L900 186L900 0L878.5 0C857 0 814 0 771.2 0C728.3 0 685.7 0 642.8 0C600 0 557 0 514.2 0C471.3 0 428.7 0 385.8 0C343 0 300 0 257.2 0C214.3 0 171.7 0 128.8 0C86 0 43 0 21.5 0L0 0Z" fill="#daa283"></path><path d="M0 242L21.5 232.5C43 223 86 204 128.8 194.5C171.7 185 214.3 185 257.2 190C300 195 343 205 385.8 198.7C428.7 192.3 471.3 169.7 514.2 170.3C557 171 600 195 642.8 209C685.7 223 728.3 227 771.2 218.8C814 210.7 857 190.3 878.5 180.2L900 170L900 0L878.5 0C857 0 814 0 771.2 0C728.3 0 685.7 0 642.8 0C600 0 557 0 514.2 0C471.3 0 428.7 0 385.8 0C343 0 300 0 257.2 0C214.3 0 171.7 0 128.8 0C86 0 43 0 21.5 0L0 0Z" fill="#da9574"></path><path d="M0 149L21.5 149.8C43 150.7 86 152.3 128.8 152C171.7 151.7 214.3 149.3 257.2 143.7C300 138 343 129 385.8 131.3C428.7 133.7 471.3 147.3 514.2 161.8C557 176.3 600 191.7 642.8 185C685.7 178.3 728.3 149.7 771.2 135.2C814 120.7 857 120.3 878.5 120.2L900 120L900 0L878.5 0C857 0 814 0 771.2 0C728.3 0 685.7 0 642.8 0C600 0 557 0 514.2 0C471.3 0 428.7 0 385.8 0C343 0 300 0 257.2 0C214.3 0 171.7 0 128.8 0C86 0 43 0 21.5 0L0 0Z" fill="#da8767"></path><path d="M0 100L21.5 104C43 108 86 116 128.8 122.7C171.7 129.3 214.3 134.7 257.2 131.2C300 127.7 343 115.3 385.8 108.2C428.7 101 471.3 99 514.2 107.5C557 116 600 135 642.8 135.3C685.7 135.7 728.3 117.3 771.2 116.3C814 115.3 857 131.7 878.5 139.8L900 148L900 0L878.5 0C857 0 814 0 771.2 0C728.3 0 685.7 0 642.8 0C600 0 557 0 514.2 0C471.3 0 428.7 0 385.8 0C343 0 300 0 257.2 0C214.3 0 171.7 0 128.8 0C86 0 43 0 21.5 0L0 0Z" fill="#da785b"></path><path d="M0 128L21.5 129.3C43 130.7 86 133.3 128.8 123.8C171.7 114.3 214.3 92.7 257.2 81.5C300 70.3 343 69.7 385.8 75.2C428.7 80.7 471.3 92.3 514.2 102.2C557 112 600 120 642.8 115.2C685.7 110.3 728.3 92.7 771.2 89.8C814 87 857 99 878.5 105L900 111L900 0L878.5 0C857 0 814 0 771.2 0C728.3 0 685.7 0 642.8 0C600 0 557 0 514.2 0C471.3 0 428.7 0 385.8 0C343 0 300 0 257.2 0C214.3 0 171.7 0 128.8 0C86 0 43 0 21.5 0L0 0Z" fill="#da6951"></path><path d="M0 50L21.5 53.7C43 57.3 86 64.7 128.8 63.2C171.7 61.7 214.3 51.3 257.2 54.3C300 57.3 343 73.7 385.8 77.2C428.7 80.7 471.3 71.3 514.2 65.8C557 60.3 600 58.7 642.8 58.7C685.7 58.7 728.3 60.3 771.2 61.8C814 63.3 857 64.7 878.5 65.3L900 66L900 0L878.5 0C857 0 814 0 771.2 0C728.3 0 685.7 0 642.8 0C600 0 557 0 514.2 0C471.3 0 428.7 0 385.8 0C343 0 300 0 257.2 0C214.3 0 171.7 0 128.8 0C86 0 43 0 21.5 0L0 0Z" fill="#da5749"></path><path d="M0 19L21.5 22.2C43 25.3 86 31.7 128.8 30C171.7 28.3 214.3 18.7 257.2 21C300 23.3 343 37.7 385.8 40.3C428.7 43 471.3 34 514.2 32.8C557 31.7 600 38.3 642.8 37C685.7 35.7 728.3 26.3 771.2 29C814 31.7 857 46.3 878.5 53.7L900 61L900 0L878.5 0C857 0 814 0 771.2 0C728.3 0 685.7 0 642.8 0C600 0 557 0 514.2 0C471.3 0 428.7 0 385.8 0C343 0 300 0 257.2 0C214.3 0 171.7 0 128.8 0C86 0 43 0 21.5 0L0 0Z" fill="#d94343"></path></svg>