<svg id="visual" viewBox="0 0 900 300" width="900" height="300" xmlns="http://www.w3.org/2000/svg" xmlns:xlink="http://www.w3.org/1999/xlink" version="1.1"><path d="M0 52L13.7 51.5C27.3 51 54.7 50 82 48.5C109.3 47 136.7 45 163.8 40C191 35 218 27 245.2 27C272.3 27 299.7 35 327 36.5C354.3 38 381.7 33 409 29C436.3 25 463.7 22 491 25C518.3 28 545.7 37 573 41C600.3 45 627.7 44 654.8 45C682 46 709 49 736.2 48C763.3 47 790.7 42 818 41.5C845.3 41 872.7 45 886.3 47L900 49L900 0L886.3 0C872.7 0 845.3 0 818 0C790.7 0 763.3 0 736.2 0C709 0 682 0 654.8 0C627.7 0 600.3 0 573 0C545.7 0 518.3 0 491 0C463.7 0 436.3 0 409 0C381.7 0 354.3 0 327 0C299.7 0 272.3 0 245.2 0C218 0 191 0 163.8 0C136.7 0 109.3 0 82 0C54.7 0 27.3 0 13.7 0L0 0Z" fill="#a12f31"></path><path d="M0 133L13.7 126.5C27.3 120 54.7 107 82 100C109.3 93 136.7 92 163.8 89C191 86 218 81 245.2 85.5C272.3 90 299.7 104 327 104.5C354.3 105 381.7 92 409 96C436.3 100 463.7 121 491 131.5C518.3 142 545.7 142 573 136C600.3 130 627.7 118 654.8 109C682 100 709 94 736.2 91.5C763.3 89 790.7 90 818 90C845.3 90 872.7 89 886.3 88.5L900 88L900 47L886.3 45C872.7 43 845.3 39 818 39.5C790.7 40 763.3 45 736.2 46C709 47 682 44 654.8 43C627.7 42 600.3 43 573 39C545.7 35 518.3 26 491 23C463.7 20 436.3 23 409 27C381.7 31 354.3 36 327 34.5C299.7 33 272.3 25 245.2 25C218 25 191 33 163.8 38C136.7 43 109.3 45 82 46.5C54.7 48 27.3 49 13.7 49.5L0 50Z" fill="#cf4040"></path><path d="M0 172L13.7 165C27.3 158 54.7 144 82 136C109.3 128 136.7 126 163.8 122C191 118 218 112 245.2 116C272.3 120 299.7 134 327 135C354.3 136 381.7 124 409 128C436.3 132 463.7 152 491 161C518.3 170 545.7 168 573 161C600.3 154 627.7 142 654.8 133C682 124 709 118 736.2 115.5C763.3 113 790.7 114 818 113C845.3 112 872.7 109 886.3 107.5L900 106L900 86L886.3 86.5C872.7 87 845.3 88 818 88C790.7 88 763.3 87 736.2 89.5C709 92 682 98 654.8 107C627.7 116 600.3 128 573 134C545.7 140 518.3 140 491 129.5C463.7 119 436.3 98 409 94C381.7 90 354.3 103 327 102.5C299.7 102 272.3 88 245.2 83.5C218 79 191 84 163.8 87C136.7 90 109.3 91 82 98C54.7 105 27.3 118 13.7 124.5L0 131Z" fill="#e76d6a"></path><path d="M0 187L13.7 180C27.3 173 54.7 159 82 151.5C109.3 144 136.7 143 163.8 142C191 141 218 140 245.2 144.5C272.3 149 299.7 159 327 156.5C354.3 154 381.7 139 409 143.5C436.3 148 463.7 172 491 184C518.3 196 545.7 196 573 188C600.3 180 627.7 164 654.8 154.5C682 145 709 142 736.2 141C763.3 140 790.7 141 818 138.5C845.3 136 872.7 130 886.3 127L900 124L900 104L886.3 105.5C872.7 107 845.3 110 818 111C790.7 112 763.3 111 736.2 113.5C709 116 682 122 654.8 131C627.7 140 600.3 152 573 159C545.7 166 518.3 168 491 159C463.7 150 436.3 130 409 126C381.7 122 354.3 134 327 133C299.7 132 272.3 118 245.2 114C218 110 191 116 163.8 120C136.7 124 109.3 126 82 134C54.7 142 27.3 156 13.7 163L0 170Z" fill="#ed807d"></path><path d="M0 223L13.7 224.5C27.3 226 54.7 229 82 229C109.3 229 136.7 226 163.8 229C191 232 218 241 245.2 243C272.3 245 299.7 240 327 235C354.3 230 381.7 225 409 226C436.3 227 463.7 234 491 238C518.3 242 545.7 243 573 241.5C600.3 240 627.7 236 654.8 231.5C682 227 709 222 736.2 217C763.3 212 790.7 207 818 211C845.3 215 872.7 228 886.3 234.5L900 241L900 122L886.3 125C872.7 128 845.3 134 818 136.5C790.7 139 763.3 138 736.2 139C709 140 682 143 654.8 152.5C627.7 162 600.3 178 573 186C545.7 194 518.3 194 491 182C463.7 170 436.3 146 409 141.5C381.7 137 354.3 152 327 154.5C299.7 157 272.3 147 245.2 142.5C218 138 191 139 163.8 140C136.7 141 109.3 142 82 149.5C54.7 157 27.3 171 13.7 178L0 185Z" fill="#e76d6a"></path><path d="M0 283L13.7 279C27.3 275 54.7 267 82 265C109.3 263 136.7 267 163.8 269.5C191 272 218 273 245.2 272.5C272.3 272 299.7 270 327 270.5C354.3 271 381.7 274 409 276.5C436.3 279 463.7 281 491 279.5C518.3 278 545.7 273 573 271C600.3 269 627.7 270 654.8 270.5C682 271 709 271 736.2 269.5C763.3 268 790.7 265 818 267C845.3 269 872.7 276 886.3 279.5L900 283L900 239L886.3 232.5C872.7 226 845.3 213 818 209C790.7 205 763.3 210 736.2 215C709 220 682 225 654.8 229.5C627.7 234 600.3 238 573 239.5C545.7 241 518.3 240 491 236C463.7 232 436.3 225 409 224C381.7 223 354.3 228 327 233C299.7 238 272.3 243 245.2 241C218 239 191 230 163.8 227C136.7 224 109.3 227 82 227C54.7 227 27.3 224 13.7 222.5L0 221Z" fill="#cf4040"></path><path d="M0 301L13.7 301C27.3 301 54.7 301 82 301C109.3 301 136.7 301 163.8 301C191 301 218 301 245.2 301C272.3 301 299.7 301 327 301C354.3 301 381.7 301 409 301C436.3 301 463.7 301 491 301C518.3 301 545.7 301 573 301C600.3 301 627.7 301 654.8 301C682 301 709 301 736.2 301C763.3 301 790.7 301 818 301C845.3 301 872.7 301 886.3 301L900 301L900 281L886.3 277.5C872.7 274 845.3 267 818 265C790.7 263 763.3 266 736.2 267.5C709 269 682 269 654.8 268.5C627.7 268 600.3 267 573 269C545.7 271 518.3 276 491 277.5C463.7 279 436.3 277 409 274.5C381.7 272 354.3 269 327 268.5C299.7 268 272.3 270 245.2 270.5C218 271 191 270 163.8 267.5C136.7 265 109.3 261 82 263C54.7 265 27.3 273 13.7 277L0 281Z" fill="#a12f31"></path></svg>