<svg id="visual" viewBox="0 0 900 200" width="900" height="200" xmlns="http://www.w3.org/2000/svg" xmlns:xlink="http://www.w3.org/1999/xlink" version="1.1"><rect x="0" y="0" width="900" height="200" fill="#D94343"></rect><path d="M0 98L37.5 106C75 114 150 130 225 128.3C300 126.7 375 107.3 450 93.8C525 80.3 600 72.7 675 75C750 77.3 825 89.7 862.5 95.8L900 102L900 201L862.5 201C825 201 750 201 675 201C600 201 525 201 450 201C375 201 300 201 225 201C150 201 75 201 37.5 201L0 201Z" fill="#D9C7B8" stroke-linecap="round" stroke-linejoin="miter"></path></svg>