<svg id="visual" viewBox="0 0 900 150" width="900" height="150" xmlns="http://www.w3.org/2000/svg" xmlns:xlink="http://www.w3.org/1999/xlink" version="1.1"><rect x="0" y="0" width="900" height="150" fill="#D94343"></rect><path d="M0 88L37.5 80C75 72 150 56 225 52.5C300 49 375 58 450 70.3C525 82.7 600 98.3 675 93.3C750 88.3 825 62.7 862.5 49.8L900 37L900 151L862.5 151C825 151 750 151 675 151C600 151 525 151 450 151C375 151 300 151 225 151C150 151 75 151 37.5 151L0 151Z" fill="#D9C7B8" stroke-linecap="round" stroke-linejoin="miter"></path></svg>