<svg id="visual" viewBox="0 0 900 450" width="900" height="450" xmlns="http://www.w3.org/2000/svg" xmlns:xlink="http://www.w3.org/1999/xlink" version="1.1"><rect x="0" y="0" width="900" height="450" fill="#D9C7B8"></rect><path d="M0 173L21.5 161C43 149 86 125 128.8 115.7C171.7 106.3 214.3 111.7 257.2 110.7C300 109.7 343 102.3 385.8 109.7C428.7 117 471.3 139 514.2 140.8C557 142.7 600 124.3 642.8 115.2C685.7 106 728.3 106 771.2 99.5C814 93 857 80 878.5 73.5L900 67L900 451L878.5 451C857 451 814 451 771.2 451C728.3 451 685.7 451 642.8 451C600 451 557 451 514.2 451C471.3 451 428.7 451 385.8 451C343 451 300 451 257.2 451C214.3 451 171.7 451 128.8 451C86 451 43 451 21.5 451L0 451Z" fill="#d9c7b8"></path><path d="M0 189L21.5 191.2C43 193.3 86 197.7 128.8 183.5C171.7 169.3 214.3 136.7 257.2 128.7C300 120.7 343 137.3 385.8 155.2C428.7 173 471.3 192 514.2 187.5C557 183 600 155 642.8 145.8C685.7 136.7 728.3 146.3 771.2 161.2C814 176 857 196 878.5 206L900 216L900 451L878.5 451C857 451 814 451 771.2 451C728.3 451 685.7 451 642.8 451C600 451 557 451 514.2 451C471.3 451 428.7 451 385.8 451C343 451 300 451 257.2 451C214.3 451 171.7 451 128.8 451C86 451 43 451 21.5 451L0 451Z" fill="#d9bba5"></path><path d="M0 198L21.5 188.7C43 179.3 86 160.7 128.8 152.2C171.7 143.7 214.3 145.3 257.2 156C300 166.7 343 186.3 385.8 196.3C428.7 206.3 471.3 206.7 514.2 212.8C557 219 600 231 642.8 225C685.7 219 728.3 195 771.2 189.2C814 183.3 857 195.7 878.5 201.8L900 208L900 451L878.5 451C857 451 814 451 771.2 451C728.3 451 685.7 451 642.8 451C600 451 557 451 514.2 451C471.3 451 428.7 451 385.8 451C343 451 300 451 257.2 451C214.3 451 171.7 451 128.8 451C86 451 43 451 21.5 451L0 451Z" fill="#d9af93"></path><path d="M0 205L21.5 212C43 219 86 233 128.8 229.8C171.7 226.7 214.3 206.3 257.2 193.7C300 181 343 176 385.8 181.3C428.7 186.7 471.3 202.3 514.2 217.2C557 232 600 246 642.8 241.5C685.7 237 728.3 214 771.2 214.3C814 214.7 857 238.3 878.5 250.2L900 262L900 451L878.5 451C857 451 814 451 771.2 451C728.3 451 685.7 451 642.8 451C600 451 557 451 514.2 451C471.3 451 428.7 451 385.8 451C343 451 300 451 257.2 451C214.3 451 171.7 451 128.8 451C86 451 43 451 21.5 451L0 451Z" fill="#daa283"></path><path d="M0 206L21.5 215.5C43 225 86 244 128.8 253.5C171.7 263 214.3 263 257.2 258C300 253 343 243 385.8 249.3C428.7 255.7 471.3 278.3 514.2 277.7C557 277 600 253 642.8 239C685.7 225 728.3 221 771.2 229.2C814 237.3 857 257.7 878.5 267.8L900 278L900 451L878.5 451C857 451 814 451 771.2 451C728.3 451 685.7 451 642.8 451C600 451 557 451 514.2 451C471.3 451 428.7 451 385.8 451C343 451 300 451 257.2 451C214.3 451 171.7 451 128.8 451C86 451 43 451 21.5 451L0 451Z" fill="#da9574"></path><path d="M0 299L21.5 298.2C43 297.3 86 295.7 128.8 296C171.7 296.3 214.3 298.7 257.2 304.3C300 310 343 319 385.8 316.7C428.7 314.3 471.3 300.7 514.2 286.2C557 271.7 600 256.3 642.8 263C685.7 269.7 728.3 298.3 771.2 312.8C814 327.3 857 327.7 878.5 327.8L900 328L900 451L878.5 451C857 451 814 451 771.2 451C728.3 451 685.7 451 642.8 451C600 451 557 451 514.2 451C471.3 451 428.7 451 385.8 451C343 451 300 451 257.2 451C214.3 451 171.7 451 128.8 451C86 451 43 451 21.5 451L0 451Z" fill="#da8767"></path><path d="M0 348L21.5 344C43 340 86 332 128.8 325.3C171.7 318.7 214.3 313.3 257.2 316.8C300 320.3 343 332.7 385.8 339.8C428.7 347 471.3 349 514.2 340.5C557 332 600 313 642.8 312.7C685.7 312.3 728.3 330.7 771.2 331.7C814 332.7 857 316.3 878.5 308.2L900 300L900 451L878.5 451C857 451 814 451 771.2 451C728.3 451 685.7 451 642.8 451C600 451 557 451 514.2 451C471.3 451 428.7 451 385.8 451C343 451 300 451 257.2 451C214.3 451 171.7 451 128.8 451C86 451 43 451 21.5 451L0 451Z" fill="#da785b"></path><path d="M0 320L21.5 318.7C43 317.3 86 314.7 128.8 324.2C171.7 333.7 214.3 355.3 257.2 366.5C300 377.7 343 378.3 385.8 372.8C428.7 367.3 471.3 355.7 514.2 345.8C557 336 600 328 642.8 332.8C685.7 337.7 728.3 355.3 771.2 358.2C814 361 857 349 878.5 343L900 337L900 451L878.5 451C857 451 814 451 771.2 451C728.3 451 685.7 451 642.8 451C600 451 557 451 514.2 451C471.3 451 428.7 451 385.8 451C343 451 300 451 257.2 451C214.3 451 171.7 451 128.8 451C86 451 43 451 21.5 451L0 451Z" fill="#da6951"></path><path d="M0 398L21.5 394.3C43 390.7 86 383.3 128.8 384.8C171.7 386.3 214.3 396.7 257.2 393.7C300 390.7 343 374.3 385.8 370.8C428.7 367.3 471.3 376.7 514.2 382.2C557 387.7 600 389.3 642.8 389.3C685.7 389.3 728.3 387.7 771.2 386.2C814 384.7 857 383.3 878.5 382.7L900 382L900 451L878.5 451C857 451 814 451 771.2 451C728.3 451 685.7 451 642.8 451C600 451 557 451 514.2 451C471.3 451 428.7 451 385.8 451C343 451 300 451 257.2 451C214.3 451 171.7 451 128.8 451C86 451 43 451 21.5 451L0 451Z" fill="#da5749"></path><path d="M0 429L21.5 425.8C43 422.7 86 416.3 128.8 418C171.7 419.7 214.3 429.3 257.2 427C300 424.7 343 410.3 385.8 407.7C428.7 405 471.3 414 514.2 415.2C557 416.3 600 409.7 642.8 411C685.7 412.3 728.3 421.7 771.2 419C814 416.3 857 401.7 878.5 394.3L900 387L900 451L878.5 451C857 451 814 451 771.2 451C728.3 451 685.7 451 642.8 451C600 451 557 451 514.2 451C471.3 451 428.7 451 385.8 451C343 451 300 451 257.2 451C214.3 451 171.7 451 128.8 451C86 451 43 451 21.5 451L0 451Z" fill="#d94343"></path></svg>