<svg id="visual" viewBox="0 0 900 200" width="900" height="200" xmlns="http://www.w3.org/2000/svg" xmlns:xlink="http://www.w3.org/1999/xlink" version="1.1"><rect x="0" y="0" width="900" height="200" fill="#D94343"></rect><path d="M0 100L37.5 92C75 84 150 68 225 69.7C300 71.3 375 90.7 450 104.2C525 117.7 600 125.3 675 123C750 120.7 825 108.3 862.5 102.2L900 96L900 0L862.5 0C825 0 750 0 675 0C600 0 525 0 450 0C375 0 300 0 225 0C150 0 75 0 37.5 0L0 0Z" fill="#D9C7B8" stroke-linecap="round" stroke-linejoin="miter"></path></svg>