<svg id="visual" viewBox="0 0 700 700" width="700" height="700" xmlns="http://www.w3.org/2000/svg" xmlns:xlink="http://www.w3.org/1999/xlink" version="1.1"><g transform="translate(321.0097689978983 315.27917574974254)"><path d="M136.3 -186.7C176.5 -158.3 209 -118.4 238 -68.2C266.9 -17.9 292.3 42.6 281.5 96.3C270.7 150 223.8 196.7 170.9 237.9C117.9 279 59 314.5 3 310.3C-52.9 306.1 -105.8 262.3 -140.5 215.2C-175.2 168.2 -191.6 117.9 -205.4 68.4C-219.2 18.9 -230.4 -29.8 -224.4 -80.6C-218.5 -131.3 -195.3 -184.2 -155.1 -212.6C-114.8 -241 -57.4 -245 -4.7 -238.5C48 -232.1 96 -215.1 136.3 -186.7" fill="#D9C7B8"></path></g></svg>