<?xml version="1.0" standalone="no"?>
<svg xmlns:xlink="http://www.w3.org/1999/xlink" id="wave" style="transform:rotate(180deg); transition: 0.3s" viewBox="0 0 1440 100" version="1.1" xmlns="http://www.w3.org/2000/svg"><defs><linearGradient id="sw-gradient-0" x1="0" x2="0" y1="1" y2="0"><stop stop-color="rgba(217, 199, 184, 1)" offset="0%"/><stop stop-color="rgba(217, 199, 184, 1)" offset="100%"/></linearGradient></defs><path style="transform:translate(0, 0px); opacity:1" fill="url(#sw-gradient-0)" d="M0,10L34.3,20C68.6,30,137,50,206,51.7C274.3,53,343,37,411,26.7C480,17,549,13,617,15C685.7,17,754,23,823,36.7C891.4,50,960,70,1029,73.3C1097.1,77,1166,63,1234,63.3C1302.9,63,1371,77,1440,83.3C1508.6,90,1577,90,1646,80C1714.3,70,1783,50,1851,46.7C1920,43,1989,57,2057,61.7C2125.7,67,2194,63,2263,51.7C2331.4,40,2400,20,2469,18.3C2537.1,17,2606,33,2674,48.3C2742.9,63,2811,77,2880,83.3C2948.6,90,3017,90,3086,90C3154.3,90,3223,90,3291,90C3360,90,3429,90,3497,88.3C3565.7,87,3634,83,3703,83.3C3771.4,83,3840,87,3909,88.3C3977.1,90,4046,90,4114,80C4182.9,70,4251,50,4320,35C4388.6,20,4457,10,4526,6.7C4594.3,3,4663,7,4731,20C4800,33,4869,57,4903,68.3L4937.1,80L4937.1,100L4902.9,100C4868.6,100,4800,100,4731,100C4662.9,100,4594,100,4526,100C4457.1,100,4389,100,4320,100C4251.4,100,4183,100,4114,100C4045.7,100,3977,100,3909,100C3840,100,3771,100,3703,100C3634.3,100,3566,100,3497,100C3428.6,100,3360,100,3291,100C3222.9,100,3154,100,3086,100C3017.1,100,2949,100,2880,100C2811.4,100,2743,100,2674,100C2605.7,100,2537,100,2469,100C2400,100,2331,100,2263,100C2194.3,100,2126,100,2057,100C1988.6,100,1920,100,1851,100C1782.9,100,1714,100,1646,100C1577.1,100,1509,100,1440,100C1371.4,100,1303,100,1234,100C1165.7,100,1097,100,1029,100C960,100,891,100,823,100C754.3,100,686,100,617,100C548.6,100,480,100,411,100C342.9,100,274,100,206,100C137.1,100,69,100,34,100L0,100Z"/></svg>